# Blender v3.0.0 OBJ File: ''
# www.blender.org
mtllib Tabellone.mtl
o Cube_Cube.001
v -1.000000 0.000000 0.072644
v -1.000000 0.000000 -0.072644
v 1.000000 0.000000 0.072644
v 1.000000 0.000000 -0.072644
v -0.941994 2.000000 0.046808
v -1.245011 1.646303 0.072644
v -0.941994 2.000000 -0.046808
v -1.245011 1.646303 -0.072644
v 0.941994 2.000000 0.046808
v 1.245011 1.646303 0.072644
v 0.941994 2.000000 -0.046808
v 1.245011 1.646303 -0.072644
vt 0.659260 0.544457
vt 0.840740 0.544457
vt 0.840740 0.705543
vt 0.659260 0.705543
vt 0.375000 0.500000
vt 0.580788 0.500000
vt 0.580788 0.750000
vt 0.375000 0.750000
vt 0.375000 0.000000
vt 0.580788 0.000000
vt 0.580788 0.250000
vt 0.375000 0.250000
vt 0.125000 0.500000
vt 0.125000 0.750000
vt 0.875000 0.500000
vt 0.875000 0.750000
vt 0.630071 0.500000
vt 0.869929 0.500000
vt 0.869929 0.750000
vt 0.630071 0.750000
vt 0.580788 1.000000
vt 0.375000 1.000000
vn 0.0000 1.0000 0.0000
vn 0.9891 -0.1472 0.0000
vn -0.9891 -0.1472 0.0000
vn 0.0000 -1.0000 0.0000
vn 0.0000 0.0000 -1.0000
vn -0.7594 0.6506 0.0000
vn 0.0000 0.0729 -0.9973
vn 0.7594 0.6506 0.0000
vn -0.0000 0.0729 0.9973
vn 0.0000 0.0000 1.0000
usemtl None
s off
f 11/1/1 7/2/1 5/3/1 9/4/1
f 4/5/2 12/6/2 10/7/2 3/8/2
f 1/9/3 6/10/3 8/11/3 2/12/3
f 2/13/4 4/5/4 3/8/4 1/14/4
f 2/12/5 8/11/5 12/6/5 4/5/5
f 5/3/6 7/2/6 8/15/6 6/16/6
f 7/2/7 11/1/7 12/17/7 8/18/7
f 11/1/8 9/4/8 10/7/8 12/6/8
f 9/4/9 5/3/9 6/19/9 10/20/9
f 3/8/10 10/7/10 6/21/10 1/22/10
